<?xml version="1.0" encoding="UTF-8"?>
<svg version="1.1" xmlns="http://www.w3.org/2000/svg" width="225" height="225">
<path d="M0 0 C10.34030705 7.93091512 17.64441687 17.83852591 22.19140625 30.03515625 C22.50980469 30.81375 22.82820313 31.59234375 23.15625 32.39453125 C28.35653209 47.44419555 26.2714835 65.71770605 19.87109375 79.9765625 C15.5799204 88.40649048 9.87979962 97.69095956 1.19140625 102.03515625 C-3.0912974 103.40197656 -5.71117504 103.06456431 -9.76171875 101.12890625 C-12.27954821 99.7835012 -14.75908548 98.37417472 -17.24609375 96.97265625 C-28.35746071 90.91327751 -40.39726696 90.19240397 -52.62109375 93.66015625 C-57.75763433 95.420715 -62.10177285 97.8599749 -66.66796875 100.76171875 C-69.47955421 102.43430426 -71.52643813 103.10809304 -74.80859375 103.03515625 C-84.01470748 100.47790244 -89.41217492 93.27825831 -94.05859375 85.28515625 C-103.00271124 69.29539621 -105.44316477 51.55712916 -100.70849609 33.83544922 C-95.52684902 16.33500694 -83.92273293 3.63303054 -68.34765625 -5.390625 C-46.32487907 -17.1662109 -20.13860213 -14.08861874 0 0 Z M-60.77734375 28.7890625 C-67.47787162 35.81609914 -70.00940188 42.94630556 -70.30859375 52.59765625 C-70.01071983 62.14883941 -67.21716504 68.30940564 -60.72265625 75.24609375 C-54.09776071 81.43834305 -47.31908352 83.52492572 -38.43359375 84.34765625 C-27.91518355 83.44089675 -20.56578615 80.02263634 -13.24609375 72.41015625 C-7.9353106 65.83490092 -6.47733169 57.74446472 -6.80859375 49.47265625 C-7.76180261 40.75908393 -11.07723431 33.75681178 -17.80859375 28.03515625 C-18.57171875 27.33390625 -19.33484375 26.63265625 -20.12109375 25.91015625 C-32.64606082 17.17180713 -49.49572252 18.73857057 -60.77734375 28.7890625 Z " fill="#63D64F" transform="translate(152.80859375,65.96484375)"/>
<path d="M0 0 C1.98 0 3.96 0 6 0 C6 0.66 6 1.32 6 2 C12.6 2.33 19.2 2.66 26 3 C25.67 4.32 25.34 5.64 25 7 C17.74 7 10.48 7 3 7 C3.33 5.35 3.66 3.7 4 2 C2.35 2 0.7 2 -1 2 C-0.67 1.34 -0.34 0.68 0 0 Z " fill="#5ED84B" transform="translate(96,148)"/>
<path d="M0 0 C0.80695313 -0.01611328 1.61390625 -0.03222656 2.4453125 -0.04882812 C8.3824043 -0.05372672 8.3824043 -0.05372672 11.5625 1.83203125 C12.036875 2.32058594 12.51125 2.80914062 13 3.3125 C12.34515625 3.21710938 11.6903125 3.12171875 11.015625 3.0234375 C0.25321852 1.71613954 -10.12757491 2.5659431 -19 9.3125 C-21.20462458 11.51238345 -23.10553747 13.84659303 -25 16.3125 C-25.66 16.9725 -26.32 17.6325 -27 18.3125 C-27.66796875 16.54296875 -27.66796875 16.54296875 -28 14.3125 C-26.92578125 12.42578125 -26.92578125 12.42578125 -25.3125 10.625 C-24.79300781 10.02300781 -24.27351563 9.42101562 -23.73828125 8.80078125 C-21.81984424 7.15825428 -20.46626903 6.71548513 -18 6.3125 C-18 5.6525 -18 4.9925 -18 4.3125 C-16.35 4.3125 -14.7 4.3125 -13 4.3125 C-13 3.6525 -13 2.9925 -13 2.3125 C-8.62717624 -0.15581162 -4.91665043 -0.01963519 0 0 Z " fill="#9DDE92" transform="translate(113,84.6875)"/>
<path d="M0 0 C0.7623999 0.00064453 1.5247998 0.00128906 2.31030273 0.00195312 C3.07850342 0.00130859 3.8467041 0.00066406 4.63818359 0 C10.39555587 0.05330339 15.80379467 0.65694968 21.37280273 2.18945312 C21.86780273 3.67445313 21.86780273 3.67445313 22.37280273 5.18945312 C21.55102539 4.97289062 21.55102539 4.97289062 20.71264648 4.75195312 C8.32138729 1.85058512 -3.45592293 2.74126748 -15.62719727 6.18945312 C-15.95719727 5.52945313 -16.28719727 4.86945313 -16.62719727 4.18945312 C-15.91692383 3.98449219 -15.20665039 3.77953125 -14.47485352 3.56835938 C-13.55575195 3.29894531 -12.63665039 3.02953125 -11.68969727 2.75195312 C-10.31491211 2.35169922 -10.31491211 2.35169922 -8.91235352 1.94335938 C-3.11569166 0.0309564 -3.11569166 0.0309564 0 0 Z " fill="#85D577" transform="translate(109.627197265625,154.810546875)"/>
<path d="M0 0 C0.66 0 1.32 0 2 0 C2.87890625 6.15234375 2.87890625 6.15234375 3 8 C2.67 8.33 2.34 8.66 2 9 C1.56687024 16.98771866 1.76127087 24.30436863 4 32 C4.125 35.5 4.125 35.5 4 38 C-2.86555883 27.70166176 -2.24253577 11.70097295 0 0 Z " fill="#8BD97E" transform="translate(51,104)"/>
<path d="M0 0 C5.65370024 3.61836815 9.2430054 7.45396035 13 13 C12.01 13.495 12.01 13.495 11 14 C10.67 14.66 10.34 15.32 10 16 C9.34 15.67 8.68 15.34 8 15 C8.33 13.68 8.66 12.36 9 11 C8.401875 10.938125 7.80375 10.87625 7.1875 10.8125 C4.09660471 9.66445318 3.4119656 7.89452948 2 5 C2 4.34 2 3.68 2 3 C1.01 2.67 0.02 2.34 -1 2 C-0.67 1.34 -0.34 0.68 0 0 Z " fill="#77D367" transform="translate(154,68)"/>
<path d="M0 0 C1.32 0.33 2.64 0.66 4 1 C-4.07744875 11.74259681 -4.07744875 11.74259681 -10 15 C-10.33 14.34 -10.66 13.68 -11 13 C-10.34 12.01 -9.68 11.02 -9 10 C-7.68 10 -6.36 10 -5 10 C-4.67 8.68 -4.34 7.36 -4 6 C-3.34 6 -2.68 6 -2 6 C-1.34 4.02 -0.68 2.04 0 0 Z " fill="#89D77C" transform="translate(164,153)"/>
<path d="M0 0 C1.32 0 2.64 0 4 0 C4 0.66 4 1.32 4 2 C2.55898131 2.93833775 1.11585238 3.8736602 -0.33984375 4.7890625 C-3.08315328 6.79006474 -4.91295768 9.33322371 -7 12 C-7.66 12.66 -8.32 13.32 -9 14 C-9.66796875 12.23046875 -9.66796875 12.23046875 -10 10 C-8.92578125 8.11328125 -8.92578125 8.11328125 -7.3125 6.3125 C-6.79300781 5.71050781 -6.27351563 5.10851562 -5.73828125 4.48828125 C-3.81984424 2.84575428 -2.46626903 2.40298513 0 2 C0 1.34 0 0.68 0 0 Z " fill="#93D887" transform="translate(95,89)"/>
<path d="M0 0 C0.66 0.33 1.32 0.66 2 1 C-1.38232729 4.58128772 -4.67246241 7.60604303 -9 10 C-11.18359375 9.6015625 -11.18359375 9.6015625 -13 9 C-11.39612733 7.8745809 -9.79189084 6.74968028 -8.1875 5.625 C-7.29417969 4.99851562 -6.40085937 4.37203125 -5.48046875 3.7265625 C-3.66732122 2.46449761 -1.83811789 1.22541192 0 0 Z " fill="#84D676" transform="translate(85,60)"/>
<path d="M0 0 C2.64 0 5.28 0 8 0 C8 0.66 8 1.32 8 2 C8.66 2.33 9.32 2.66 10 3 C10 3.33 10 3.66 10 4 C12.97 4.495 12.97 4.495 16 5 C15.67 5.66 15.34 6.32 15 7 C9.08689107 6.0013416 4.73024463 4.75993804 0 1 C0 0.67 0 0.34 0 0 Z " fill="#85D977" transform="translate(136,162)"/>
<path d="M0 0 C1.19641892 3.58925675 1.02473777 6.40593224 0.9375 10.1875 C0.85668649 15.79124336 1.25551087 20.65750203 3 26 C2.34 26.33 1.68 26.66 1 27 C-0.9683758 21.25825556 -1.27528672 16.16842242 -1.1875 10.125 C-1.18685547 9.25875 -1.18621094 8.3925 -1.18554688 7.5 C-1.14069283 1.14069283 -1.14069283 1.14069283 0 0 Z " fill="#9BDD8F" transform="translate(83,108)"/>
<path d="M0 0 C6.8218683 -0.38614349 12.49577707 0.99134292 19 3 C19 3.33 19 3.66 19 4 C16.39421134 3.91304042 13.7918721 3.80618592 11.1875 3.6875 C10.44951172 3.66494141 9.71152344 3.64238281 8.95117188 3.61914062 C3.45025238 3.3453392 3.45025238 3.3453392 0.98828125 1.45703125 C0.66214844 0.97621094 0.33601563 0.49539062 0 0 Z " fill="#88D77C" transform="translate(117,54)"/>
<path d="M0 0 C0.66 1.98 1.32 3.96 2 6 C3.98 5.67 5.96 5.34 8 5 C7.01 5.495 7.01 5.495 6 6 C5.67 6.99 5.34 7.98 5 9 C0.7257442 7.4169423 -1.26531794 4.49431596 -4 1 C-2 0 -2 0 0 0 Z M2 3 C4 4 4 4 4 4 Z " fill="#77D568" transform="translate(69,158)"/>
<path d="M0 0 C0.66 0 1.32 0 2 0 C2.5345256 1.24420647 3.05208611 2.49570936 3.5625 3.75 C3.85253906 4.44609375 4.14257812 5.1421875 4.44140625 5.859375 C5.07831803 8.30012784 4.80248831 9.6403655 4 12 C3.34 11.67 2.68 11.34 2 11 C1.66666667 9.33333333 1.33333333 7.66666667 1 6 C0.34 5.67 -0.32 5.34 -1 5 C-0.67 3.35 -0.34 1.7 0 0 Z " fill="#81D473" transform="translate(171,91)"/>
<path d="M0 0 C0.66 0.33 1.32 0.66 2 1 C-0.36870172 4.9478362 -2.62833292 5.81600683 -7 7 C-7.99 7.33 -8.98 7.66 -10 8 C-12.6875 7.5625 -12.6875 7.5625 -15 7 C-15 6.67 -15 6.34 -15 6 C-14.25234375 5.81824219 -13.5046875 5.63648438 -12.734375 5.44921875 C-11.25710937 5.07216797 -11.25710937 5.07216797 -9.75 4.6875 C-8.77546875 4.44386719 -7.8009375 4.20023438 -6.796875 3.94921875 C-4.01024335 3.00347644 -2.22695632 1.89291287 0 0 Z " fill="#99DF8D" transform="translate(133,143)"/>
<path d="M0 0 C5.28 0.66 10.56 1.32 16 2 C16 2.33 16 2.66 16 3 C13.70839681 3.02692484 11.41670454 3.04636124 9.125 3.0625 C7.84882812 3.07410156 6.57265625 3.08570313 5.2578125 3.09765625 C2 3 2 3 0 2 C0 1.34 0 0.68 0 0 Z " fill="#85D378" transform="translate(102,148)"/>
<path d="M0 0 C2.31 1.65 4.62 3.3 7 5 C6.67 5.99 6.34 6.98 6 8 C5.01 7.67 4.02 7.34 3 7 C2.66666667 5.66666667 2.33333333 4.33333333 2 3 C1.01 2.67 0.02 2.34 -1 2 C-0.67 1.34 -0.34 0.68 0 0 Z " fill="#84D577" transform="translate(154,68)"/>
<path d="M0 0 C0.66 0 1.32 0 2 0 C4.30163882 3.45245824 4.34490322 4.94738713 4 9 C3.34 9.66 2.68 10.32 2 11 C1.34 7.37 0.68 3.74 0 0 Z " fill="#8BD97E" transform="translate(143,104)"/>
<path d="M0 0 C4.455 2.97 4.455 2.97 9 6 C5.29847322 6.92538169 4.36541838 7.08174162 1 6 C0.67 4.02 0.34 2.04 0 0 Z " fill="#98DD8B" transform="translate(91,140)"/>
<path d="M0 0 C3.77545388 1.09068668 6.47043472 1.9083091 9 5 C7.1875 5.625 7.1875 5.625 5 6 C4.01 5.34 3.02 4.68 2 4 C2 3.34 2 2.68 2 2 C1.34 2 0.68 2 0 2 C0 1.34 0 0.68 0 0 Z " fill="#83D876" transform="translate(141,60)"/>
<path d="M0 0 C0.33 0 0.66 0 1 0 C1 1.65 1 3.3 1 5 C-0.875 6.0625 -0.875 6.0625 -3 7 C-3.66 6.67 -4.32 6.34 -5 6 C-3.35830472 3.97945196 -1.69088222 1.97956942 0 0 Z " fill="#85D978" transform="translate(140,136)"/>
<path d="M0 0 C0.33 0.99 0.66 1.98 1 3 C-0.9375 5.6875 -0.9375 5.6875 -3 8 C-3.75 6.25 -3.75 6.25 -4 4 C-2.0625 1.75 -2.0625 1.75 0 0 Z " fill="#82D870" transform="translate(89,95)"/>
<path d="M0 0 C2.97 0.495 2.97 0.495 6 1 C6 2.32 6 3.64 6 5 C6.66 5.33 7.32 5.66 8 6 C7.01 6 6.02 6 5 6 C4.731875 5.360625 4.46375 4.72125 4.1875 4.0625 C3.11332248 1.66868314 3.11332248 1.66868314 0 1 C0 0.67 0 0.34 0 0 Z " fill="#9DDF92" transform="translate(134,93)"/>
<path d="M0 0 C2.97 0 5.94 0 9 0 C9.33 0.99 9.66 1.98 10 3 C6.7 2.34 3.4 1.68 0 1 C0 0.67 0 0.34 0 0 Z " fill="#91DC85" transform="translate(122,157)"/>
</svg>
